<svg width="44" height="44" viewBox="0 0 44 44" fill="none" xmlns="http://www.w3.org/2000/svg">
<path d="M44 22C44 34.1503 34.1503 44 22 44C9.84974 44 0 34.1503 0 22C0 9.84974 9.84974 0 22 0C34.1503 0 44 9.84974 44 22Z" fill="#BDBDBD"/>
<mask id="mask0" mask-type="alpha" maskUnits="userSpaceOnUse" x="0" y="0" width="44" height="44">
<path d="M44 22C44 34.1503 34.1503 44 22 44C9.84974 44 0 34.1503 0 22C0 9.84974 9.84974 0 22 0C34.1503 0 44 9.84974 44 22Z" fill="#BDBDBD"/>
</mask>
<g mask="url(#mask0)">
<path d="M14.7998 12L-1 28.5003" stroke="black" stroke-width="2"/>
<path d="M13.6631 12.2944L41 35" stroke="black" stroke-width="2"/>
<circle cx="34.5" cy="15.5" r="4" fill="#D2E2ED" stroke="black"/>
</g>
</svg>
